<svg width="2177" height="1247" viewBox="0 0 2177 1247" fill="none" xmlns="http://www.w3.org/2000/svg">
<path fill-rule="evenodd" clip-rule="evenodd" d="M1513.65 927.673H1528.34V633.418H1513.65V927.673Z" fill="#DCEEFF"/>
<path fill-rule="evenodd" clip-rule="evenodd" d="M1498.95 927.673H1513.64V633.418H1498.95V927.673Z" fill="#B6D4FF"/>
<path fill-rule="evenodd" clip-rule="evenodd" d="M1629.04 927.673H1643.73V633.418H1629.04V927.673Z" fill="#DCEEFF"/>
<path fill-rule="evenodd" clip-rule="evenodd" d="M1614.35 927.673H1629.04V633.418H1614.35V927.673Z" fill="#B6D4FF"/>
<path fill-rule="evenodd" clip-rule="evenodd" d="M1513.65 757.048H1629.04V633.418H1513.65V757.048Z" fill="#DCEEFF"/>
<path fill-rule="evenodd" clip-rule="evenodd" d="M1459.6 633.418H1845.24V613.846H1459.6V633.418Z" fill="#B6D4FF"/>
<path fill-rule="evenodd" clip-rule="evenodd" d="M1816.45 633.418H1971.74V613.846H1816.45V633.418Z" fill="#DCEEFF"/>
<path fill-rule="evenodd" clip-rule="evenodd" d="M1917.39 927.673H1933.1V633.418H1917.39V927.673Z" fill="#DCEEFF"/>
<path fill-rule="evenodd" clip-rule="evenodd" d="M1901.68 927.673H1917.39V633.418H1901.68V927.673Z" fill="#B6D4FF"/>
<path fill-rule="evenodd" clip-rule="evenodd" d="M1793.52 927.673H1809.23V633.418H1793.52V927.673Z" fill="#DCEEFF"/>
<path fill-rule="evenodd" clip-rule="evenodd" d="M1793.52 782.821H1917.39V633.503H1793.52V782.821Z" fill="#DCEEFF"/>
<path fill-rule="evenodd" clip-rule="evenodd" d="M1675.16 782.75H1777.81V633.433H1675.16V782.75Z" fill="#B6D4FF"/>
<path fill-rule="evenodd" clip-rule="evenodd" d="M1777.81 927.673H1793.52V633.418H1777.81V927.673Z" fill="#B6D4FF"/>
<path fill-rule="evenodd" clip-rule="evenodd" d="M1777.81 659.582H1933.1V633.418H1777.81V659.582Z" fill="#B6D4FF"/>
<path fill-rule="evenodd" clip-rule="evenodd" d="M1498.95 659.582H1643.73V633.418H1498.95V659.582Z" fill="#B6D4FF"/>
<path fill-rule="evenodd" clip-rule="evenodd" d="M1691.74 699.402H1761.23V647.652H1691.74V699.402Z" fill="#DCEEFF"/>
<path fill-rule="evenodd" clip-rule="evenodd" d="M1691.74 764.998H1761.23V713.248H1691.74V764.998Z" fill="#DCEEFF"/>
<path fill-rule="evenodd" clip-rule="evenodd" d="M1737.37 673.528C1737.37 679.657 1732.49 684.627 1726.48 684.627C1720.47 684.627 1715.6 679.657 1715.6 673.528C1715.6 667.399 1720.47 662.43 1726.48 662.43C1732.49 662.43 1737.37 667.399 1737.37 673.528Z" fill="#B6D4FF"/>
<path fill-rule="evenodd" clip-rule="evenodd" d="M1737.37 739.123C1737.37 745.252 1732.49 750.222 1726.48 750.222C1720.47 750.222 1715.6 745.252 1715.6 739.123C1715.6 732.993 1720.47 728.024 1726.48 728.024C1732.49 728.024 1737.37 732.993 1737.37 739.123Z" fill="#B6D4FF"/>
<path fill-rule="evenodd" clip-rule="evenodd" d="M928.887 830.343H477.387V723.405H928.887V830.343Z" fill="#B6D4FF"/>
<path fill-rule="evenodd" clip-rule="evenodd" d="M802.221 746.035H476.71C459.768 746.035 445.629 733.099 444.127 716.222L433.947 601.811C432.245 582.676 447.321 566.2 466.531 566.2H792.041C808.985 566.2 823.124 579.137 824.625 596.014L834.804 710.424C836.506 729.559 821.432 746.035 802.221 746.035Z" fill="#B6D4FF"/>
<path fill-rule="evenodd" clip-rule="evenodd" d="M1070.14 882.3H943.452C924.713 882.3 909.991 866.255 911.601 847.584L922.089 725.943C923.514 709.413 937.348 696.72 953.939 696.72H1080.63C1099.37 696.72 1114.09 712.765 1112.48 731.435L1101.99 853.077C1100.57 869.607 1086.73 882.3 1070.14 882.3Z" fill="#B6D4FF"/>
<path fill-rule="evenodd" clip-rule="evenodd" d="M900.156 746.035H538.533C521.59 746.035 507.451 733.099 505.949 716.222L495.771 601.811C494.068 582.676 509.143 566.2 528.354 566.2H889.977C906.92 566.2 921.059 579.137 922.561 596.014L932.74 710.424C934.442 729.559 919.367 746.035 900.156 746.035Z" fill="#DCEEFF"/>
<path fill-rule="evenodd" clip-rule="evenodd" d="M1056.77 882.299H504.574V826.298H1056.77V882.299Z" fill="#CCE3FF"/>
<path fill-rule="evenodd" clip-rule="evenodd" d="M981.377 826.298H592.87C573.575 826.298 557.934 810.656 557.934 791.362C557.934 772.067 573.575 756.426 592.87 756.426H981.377C1000.67 756.426 1016.31 772.067 1016.31 791.362C1016.31 810.656 1000.67 826.298 981.377 826.298Z" fill="#DCEEFF"/>
<path fill-rule="evenodd" clip-rule="evenodd" d="M399.636 927.673H386.385L391.985 882.3H416.437L399.636 927.673Z" fill="#B6D4FF"/>
<path fill-rule="evenodd" clip-rule="evenodd" d="M513.524 927.673H500.273L505.873 882.3H530.324L513.524 927.673Z" fill="#B6D4FF"/>
<path fill-rule="evenodd" clip-rule="evenodd" d="M1054.67 927.673H1067.92L1062.32 882.3H1037.87L1054.67 927.673Z" fill="#B6D4FF"/>
<path fill-rule="evenodd" clip-rule="evenodd" d="M940.785 927.673H954.037L948.437 882.3H923.985L940.785 927.673Z" fill="#B6D4FF"/>
<path fill-rule="evenodd" clip-rule="evenodd" d="M1070.14 882.3H1051.16C1032.42 882.3 1017.7 866.255 1019.31 847.584L1029.79 725.943C1031.22 709.413 1045.05 696.72 1061.64 696.72H1080.63C1099.37 696.72 1114.09 712.765 1112.48 731.435L1101.99 853.077C1100.57 869.607 1086.73 882.3 1070.14 882.3Z" fill="#CCE3FF"/>
<path fill-rule="evenodd" clip-rule="evenodd" d="M523.09 882.3H380.401C363.809 882.3 349.975 869.607 348.55 853.077L338.063 731.435C336.452 712.765 351.173 696.72 369.913 696.72H512.603C529.194 696.72 543.028 709.413 544.453 725.943L554.94 847.584C556.551 866.255 541.83 882.3 523.09 882.3Z" fill="#B6D4FF"/>
<path fill-rule="evenodd" clip-rule="evenodd" d="M523.09 882.3H504.107C487.514 882.3 473.68 869.607 472.255 853.077L461.768 731.435C460.158 712.765 474.879 696.72 493.619 696.72H512.603C529.194 696.72 543.028 709.413 544.453 725.943L554.94 847.584C556.551 866.255 541.83 882.3 523.09 882.3Z" fill="#CCE3FF"/>
<path fill-rule="evenodd" clip-rule="evenodd" d="M1741.42 283.331H1818.61L1829.04 179.2H1751.85L1741.42 283.331Z" fill="#DCEEFF"/>
<path fill-rule="evenodd" clip-rule="evenodd" d="M1741.42 283.331H1818.61L1829.04 179.2H1751.85L1741.42 283.331Z" stroke="#DCEEFF" stroke-width="5"/>
<path fill-rule="evenodd" clip-rule="evenodd" d="M1737.26 283.331H1815.88L1826.31 179.2H1747.68L1737.26 283.331Z" fill="white"/>
<path fill-rule="evenodd" clip-rule="evenodd" d="M1737.26 283.331H1815.88L1826.31 179.2H1747.68L1737.26 283.331Z" stroke="#DCEEFF" stroke-width="5"/>
<path fill-rule="evenodd" clip-rule="evenodd" d="M1752.32 269.581H1803.58L1811.25 192.949H1759.99L1752.32 269.581Z" fill="#DCEEFF"/>
<path fill-rule="evenodd" clip-rule="evenodd" d="M1945.28 210.171L1938.06 282.316H1843.21L1850.43 210.171H1945.28Z" fill="#DCEEFF"/>
<path fill-rule="evenodd" clip-rule="evenodd" d="M1945.28 210.171L1938.06 282.316H1843.21L1850.43 210.171H1945.28Z" stroke="#DCEEFF" stroke-width="5"/>
<path fill-rule="evenodd" clip-rule="evenodd" d="M1943.16 210.171L1935.94 282.316H1839.32L1846.55 210.171H1943.16Z" fill="white"/>
<path fill-rule="evenodd" clip-rule="evenodd" d="M1943.16 210.171L1935.94 282.316H1839.32L1846.55 210.171H1943.16Z" stroke="#DCEEFF" stroke-width="5"/>
<path fill-rule="evenodd" clip-rule="evenodd" d="M1922.79 224.323L1918.4 268.162H1859.69L1864.08 224.323H1922.79Z" fill="#CCE3FF"/>
<path fill-rule="evenodd" clip-rule="evenodd" d="M1624.64 255.35C1624.64 260.873 1629.12 265.35 1634.64 265.35H1724.62V245.35H1634.64C1629.12 245.35 1624.64 249.827 1624.64 255.35Z" fill="#CCE3FF"/>
<path fill-rule="evenodd" clip-rule="evenodd" d="M1685.16 255.35C1685.16 258.547 1687.75 261.139 1690.95 261.139H1724.38C1724.51 261.139 1724.62 261.032 1724.62 260.899V249.801C1724.62 249.668 1724.51 249.561 1724.38 249.561H1690.95C1687.75 249.561 1685.16 252.153 1685.16 255.35Z" fill="#DCEEFF"/>
<path fill-rule="evenodd" clip-rule="evenodd" d="M1612.08 265.351V285.351H1710.29C1715.81 285.351 1720.29 280.874 1720.29 275.351C1720.29 269.828 1715.81 265.351 1710.29 265.351H1612.08Z" fill="#CCE3FF"/>
<path fill-rule="evenodd" clip-rule="evenodd" d="M1612.08 269.617V281.084H1652.46C1655.63 281.084 1658.2 278.517 1658.2 275.351C1658.2 272.184 1655.63 269.617 1652.46 269.617H1612.08Z" fill="#DCEEFF"/>
<path fill-rule="evenodd" clip-rule="evenodd" d="M1580.2 298.638H1918.74V284.416H1580.2V298.638Z" fill="#DCEEFF"/>
<path fill-rule="evenodd" clip-rule="evenodd" d="M1918.74 298.638H1974.44V284.416H1918.74V298.638Z" fill="#CCE3FF"/>
<path fill-rule="evenodd" clip-rule="evenodd" d="M1662.71 298.638L1689.15 340.114V298.638H1662.71Z" fill="#B6D4FF"/>
<path fill-rule="evenodd" clip-rule="evenodd" d="M1648.08 298.638L1674.52 340.114H1689.15L1662.71 298.638H1648.08Z" fill="#CCE3FF"/>
<path fill-rule="evenodd" clip-rule="evenodd" d="M1856.61 298.638L1883.05 340.114V298.638H1856.61Z" fill="#B6D4FF"/>
<path fill-rule="evenodd" clip-rule="evenodd" d="M1841.98 298.638L1868.42 340.114H1883.05L1856.61 298.638H1841.98Z" fill="#CCE3FF"/>
<path fill-rule="evenodd" clip-rule="evenodd" d="M359.944 931.078H345.09V846.803H359.944V931.078Z" fill="#DCEEFF"/>
<path fill-rule="evenodd" clip-rule="evenodd" d="M236.221 931.078H221.367V846.803H236.221V931.078Z" fill="#DCEEFF"/>
<path fill-rule="evenodd" clip-rule="evenodd" d="M307.577 931.078H292.723V846.803H307.577V931.078Z" fill="#B6D4FF"/>
<path fill-rule="evenodd" clip-rule="evenodd" d="M183.855 931.078H169.001V846.803H183.855V931.078Z" fill="#B6D4FF"/>
<path fill-rule="evenodd" clip-rule="evenodd" d="M307.347 861.755H168.772V692.545H307.347V861.755Z" fill="#B6D4FF"/>
<path fill-rule="evenodd" clip-rule="evenodd" d="M359.944 861.755H221.368V692.545H359.944V861.755Z" fill="#DCEEFF"/>
<path fill-rule="evenodd" clip-rule="evenodd" d="M347.087 839.85H234.225V714.45H347.087V839.85Z" fill="#ECF6FF"/>
<path fill-rule="evenodd" clip-rule="evenodd" d="M271.207 714.45C271.207 723.366 275.346 730.595 280.451 730.595H300.862C305.967 730.595 310.106 723.366 310.106 714.45H271.207Z" fill="#CCE3FF"/>
<path fill-rule="evenodd" clip-rule="evenodd" d="M228.934 692.851H200.112V620.654H228.934V692.851Z" fill="#CCE3FF"/>
<path fill-rule="evenodd" clip-rule="evenodd" d="M209.904 692.851H255.918L238.548 583.955H192.534L209.904 692.851Z" fill="#DCEEFF"/>
<path fill-rule="evenodd" clip-rule="evenodd" d="M219.42 692.851H265.435L248.065 583.955H202.05L219.42 692.851Z" fill="#ECF6FF"/>
<path fill-rule="evenodd" clip-rule="evenodd" d="M225.205 676.048H254.289L242.28 600.759H213.196L225.205 676.048Z" fill="#CCE3FF"/>
<path fill-rule="evenodd" clip-rule="evenodd" d="M292.962 692.851H272.579V641.792H292.962V692.851Z" fill="#CCE3FF"/>
<path fill-rule="evenodd" clip-rule="evenodd" d="M281.183 692.851H313.726L301.441 615.838H268.898L281.183 692.851Z" fill="#DCEEFF"/>
<path fill-rule="evenodd" clip-rule="evenodd" d="M287.914 692.851H320.456L308.171 615.838H275.629L287.914 692.851Z" fill="#ECF6FF"/>
<path fill-rule="evenodd" clip-rule="evenodd" d="M292.887 677.077H310.45L303.198 631.611H285.635L292.887 677.077Z" fill="#DCEEFF"/>
<path fill-rule="evenodd" clip-rule="evenodd" d="M977.971 257.94H1173.05V92.5H977.971V257.94Z" fill="#DCEEFF"/>
<path fill-rule="evenodd" clip-rule="evenodd" d="M977.971 257.94H1173.05V92.5H977.971V257.94Z" stroke="#DCEEFF" stroke-width="5"/>
<path fill-rule="evenodd" clip-rule="evenodd" d="M966.5 258.162H1161.58V92.7217H966.5V258.162Z" fill="white"/>
<path fill-rule="evenodd" clip-rule="evenodd" d="M966.5 258.162H1161.58V92.7217H966.5V258.162Z" stroke="#DCEEFF" stroke-width="5"/>
<path fill-rule="evenodd" clip-rule="evenodd" d="M999.726 223.983H1125.57V126.457H999.726V223.983Z" fill="#DCEEFF"/>
<path fill-rule="evenodd" clip-rule="evenodd" d="M791.749 276.075C791.749 290.411 782.531 302.033 771.16 302.033C759.791 302.033 750.573 290.411 750.573 276.075C750.573 261.739 759.791 250.118 771.16 250.118C782.531 250.118 791.749 261.739 791.749 276.075Z" fill="#19141E"/>
<path d="M743.029 378.905L742.167 349.092C742.167 349.092 778.314 351.977 786.047 347.951C786.047 347.951 795.498 299.149 784.226 272.124L783.998 271.072L707.717 262.129L703.44 306C700.87 298.404 679.664 289.79 674.121 300.668C662.107 324.238 705.061 340.109 705.061 340.109L700.699 379.263" fill="#E576C6"/>
<path opacity="0.398926" fill-rule="evenodd" clip-rule="evenodd" d="M742.167 349.092L717.792 343.854L742.05 360.277L742.167 349.092Z" fill="black"/>
<path fill-rule="evenodd" clip-rule="evenodd" d="M761.652 305.442L770.074 326.081L759.98 326.21L761.652 305.442Z" fill="#405FD3"/>
<path fill-rule="evenodd" clip-rule="evenodd" d="M752.67 306.237C753.172 309.016 751.33 311.676 748.557 312.179C745.784 312.682 743.129 310.836 742.628 308.057C742.126 305.278 743.967 302.618 746.741 302.115C749.514 301.612 752.168 303.458 752.67 306.237Z" fill="#0D0B6D"/>
<path fill-rule="evenodd" clip-rule="evenodd" d="M780.974 306.237C781.476 309.016 779.634 311.676 776.861 312.179C774.088 312.682 771.433 310.836 770.932 308.057C770.43 305.278 772.271 302.618 775.045 302.115C777.818 301.612 780.472 303.458 780.974 306.237Z" fill="#0D0B6D"/>
<path d="M709.104 313.488C701.872 301.082 691.408 297.298 686.711 296.189C684.837 290.762 683.409 284.469 682.406 277.775C679.715 259.861 692.711 243.516 703.208 238.823C713.834 234.073 732.156 227.491 758.975 236.426C777.005 242.437 788.53 228.046 799.14 234.192C817.27 244.698 800.407 290.69 754.435 279.006C721.551 270.648 720.706 272.745 720.424 278.82C719.512 298.458 716.457 310.01 709.104 313.488Z" fill="#2F2F3D"/>
<path fill-rule="evenodd" clip-rule="evenodd" d="M747.629 326.977C747.629 326.977 750.87 332.878 757.875 332.739L747.629 326.977Z" fill="white"/>
<path d="M747.629 326.977C747.629 326.977 750.87 332.878 757.875 332.739" stroke="#252535" stroke-width="4"/>
<path fill-rule="evenodd" clip-rule="evenodd" d="M759.206 306.484C759.206 312.946 753.979 318.183 747.532 318.183C741.085 318.183 735.858 312.946 735.858 306.484C735.858 300.023 741.085 294.785 747.532 294.785C753.979 294.785 759.206 300.023 759.206 306.484Z" stroke="#252535" stroke-width="4"/>
<path fill-rule="evenodd" clip-rule="evenodd" d="M788.6 306.484C788.6 312.946 783.373 318.183 776.927 318.183C770.479 318.183 765.252 312.946 765.252 306.484C765.252 300.023 770.479 294.785 776.927 294.785C783.373 294.785 788.6 300.023 788.6 306.484Z" stroke="#252535" stroke-width="4"/>
<path d="M764.301 307.026H759.254" stroke="#252535" stroke-width="4"/>
<path d="M735.858 306.484H707.021" stroke="#252535" stroke-width="4"/>
<path fill-rule="evenodd" clip-rule="evenodd" d="M773.048 1048.97L773.331 1024.52L741.828 1008.64L737.256 1078.53H846.402C827.831 1057.6 773.048 1048.97 773.048 1048.97ZM633.237 1049.92L633.521 1022.46L612.982 1039.19L596.455 1048.4L591.001 1078.53H665.703C656.311 1052.93 633.237 1049.92 633.237 1049.92Z" fill="#0D0B6D"/>
<path fill-rule="evenodd" clip-rule="evenodd" d="M633.521 1022.46L602.018 1012.98L596.454 1048.4L633.237 1049.92L633.521 1022.46ZM773.331 1024.52L741.828 1015.04L739.288 1047.45L773.048 1048.97L773.331 1024.52Z" fill="#E576C6"/>
<path d="M777.846 1016.5L777.119 1039.19H735.565L736.293 1016.43C731.638 1014.56 728.312 1010.07 728.198 1004.76L721.51 664.867L649.235 1008.02C648.217 1012.84 644.639 1016.59 640.095 1017.97L637.378 1039.19H593.808L597.558 1015.77C593.93 1012.95 591.827 1008.32 592.55 1003.38L659.09 548.577L719.221 548.577L719.218 548.403H792.047L787.682 1004.12C787.622 1010.12 783.455 1015.13 777.846 1016.5Z" fill="#2F2F3D"/>
<path opacity="0.197824" fill-rule="evenodd" clip-rule="evenodd" d="M721.14 670.253L733.892 613.683L724.298 785.189L721.14 670.253Z" fill="black"/>
<path d="M674.647 549.006L681.627 550.145L605.516 1013.62L598.516 1012.45L674.647 549.006Z" fill="#EFEFEF"/>
<path fill-rule="evenodd" clip-rule="evenodd" d="M892.083 392.681L891.583 384.052C891.583 384.052 891.593 378.048 892.373 371.566C892.568 369.94 892.998 368.239 893.457 366.423C894.828 361 896.458 354.549 892.893 345.977C888.133 334.544 899.513 342.438 902.033 347.876C903.006 349.977 903.29 353.154 903.571 356.305C903.896 359.95 904.219 363.56 905.603 365.432C907.783 364.249 909.233 362.708 909.233 362.708L933.763 331.075C934.553 330.011 936.013 329.693 937.183 330.319L938.503 331.035C939.893 331.79 940.333 333.56 939.443 334.852C937.741 337.335 934.771 341.524 931.666 345.901L931.665 345.902L931.663 345.905C926.03 353.848 919.955 362.414 920.213 362.549L920.863 363.334L949.673 333.133C950.573 332.128 952.083 331.95 953.193 332.715L954.923 333.908C956.183 334.773 956.453 336.503 955.513 337.696C952.441 341.64 944.836 350.182 938.504 357.293L938.504 357.293C933.027 363.446 928.502 368.527 928.693 368.633L929.553 369.458L956.373 345.907C957.323 344.853 958.943 344.734 960.043 345.619L961.353 346.683C962.503 347.607 962.673 349.287 961.733 350.421L936.403 374.101L937.133 375.244L959.123 359.885C960.133 358.99 961.653 358.99 962.673 359.875L963.283 360.422C964.363 361.376 964.483 363.016 963.543 364.12C962.046 365.881 959.083 368.194 955.551 370.952C951.487 374.125 946.668 377.888 942.463 382.074C940.146 384.38 938.278 386.641 936.386 388.931C933.295 392.673 930.137 396.494 924.853 400.724C921.699 403.258 918.844 404.732 916.127 406.135C915.743 406.333 915.362 406.53 914.983 406.728L892.083 392.681ZM694.373 372.883C694.373 372.883 711.32 372.85 723.551 372.809C735.781 372.768 751.161 377.908 751.161 377.908C751.161 377.908 759.164 395.878 731.364 394.251C703.564 392.622 694.373 372.883 694.373 372.883ZM601.68 445.601C601.68 445.601 574.551 486.303 575.166 508.939C575.892 535.627 661.237 601.204 661.237 601.204L683.355 583.197L629.627 508.327L649.166 466.727L601.68 445.601Z" fill="#E576C6"/>
<path d="M676.928 550.562L690.14 568.282L650.345 602.949C650.345 602.949 577.318 549.455 575.063 507.512C573.627 480.798 597.012 442.664 597.012 442.664C597.012 442.664 626.364 395.779 660.294 379.957C667.257 376.709 684.139 374.001 694.373 372.883C697.51 372.541 695.634 373.762 696.711 375.83C697.837 377.99 701.261 381.19 703.63 383.583C708.562 388.562 718.28 392.332 723.5 393.104C727.478 393.692 735.166 394.604 738.865 394.108C742.563 393.611 746.584 391.943 747.659 390.951C748.733 389.96 750.332 388.72 751.161 386.809C751.99 384.899 751.948 385.446 751.948 383.683C751.948 381.921 751.857 382.181 751.685 381.343C751.512 380.504 751.512 380 751.41 379.566C750.96 377.648 751.161 377.909 751.161 377.909C771.191 383.955 781.336 386.192 788.633 394.988L844.397 434.099L882.551 384.342L931.781 417.377C931.781 417.377 888.192 498.539 856.602 507.512C831.155 514.74 805.376 492.261 796.312 483.245L807.081 537.882C808.807 547.315 800.542 550.885 793.178 550.551L676.928 550.562Z" fill="#72A065"/>
<path opacity="0.201242" fill-rule="evenodd" clip-rule="evenodd" d="M796.143 483.277L789.478 456.953L807.474 492.928L796.143 483.277Z" fill="black"/>
<path opacity="0.200591" d="M671.986 544.218L640.909 500.17L678.448 443.274" stroke="black" stroke-width="5"/>
<path d="M1324.44 395.845L1325.3 366.483C1325.3 366.483 1289.39 369.324 1281.71 365.359C1281.71 365.359 1273.43 322.111 1283.75 289.643L1359.52 280.836L1364.91 324.132C1367.46 316.651 1387.39 308.079 1392.89 318.792C1404.83 342.005 1362.16 357.635 1362.16 357.635L1366.49 396.198" fill="#5E93D1"/>
<path opacity="0.399344" fill-rule="evenodd" clip-rule="evenodd" d="M1325.3 366.483L1349.51 361.324L1325.42 377.499L1325.3 366.483Z" fill="black"/>
<path fill-rule="evenodd" clip-rule="evenodd" d="M1305.33 318.5L1296.96 338.826L1306.99 338.953L1305.33 318.5Z" fill="#2437A8"/>
<path fill-rule="evenodd" clip-rule="evenodd" d="M1314.87 324.277C1314.37 327.014 1316.2 329.634 1318.95 330.129C1321.71 330.624 1324.34 328.806 1324.84 326.07C1325.34 323.332 1323.51 320.712 1320.76 320.217C1318 319.722 1315.37 321.539 1314.87 324.277Z" fill="#0D0B6D"/>
<path fill-rule="evenodd" clip-rule="evenodd" d="M1288.55 324.277C1288.05 327.014 1289.88 329.634 1292.64 330.129C1295.39 330.624 1298.03 328.806 1298.53 326.07C1299.03 323.332 1297.2 320.712 1294.44 320.217C1291.69 319.722 1289.05 321.539 1288.55 324.277Z" fill="#0D0B6D"/>
<path fill-rule="evenodd" clip-rule="evenodd" d="M1315.73 344.708C1315.73 344.708 1312.23 350.355 1305.29 349.877L1315.73 344.708Z" fill="white"/>
<path d="M1315.73 344.708C1315.73 344.708 1312.23 350.355 1305.29 349.877" stroke="#252535" stroke-width="4"/>
<path d="M1379.23 314.879C1382.6 302.445 1394.77 256.551 1393.34 248.716C1391.68 239.636 1385.32 228.489 1352.63 216.798C1324.94 206.893 1309.32 214.065 1304.59 220.169C1297.39 229.455 1283.75 289.644 1283.75 289.644C1283.75 289.644 1295.03 297.623 1335.05 296.247C1335.05 296.247 1329.51 320.185 1352.22 318.809C1352.22 318.809 1349.78 326.871 1360.77 329.406C1366.8 320.09 1374.8 316.324 1379.23 314.879Z" fill="#19141E"/>
<path fill-rule="evenodd" clip-rule="evenodd" d="M1523.72 979.967L1493.28 952.045L1503.85 923.802L1569 972.188L1516.23 1064.33C1516.23 1064.33 1514.53 1041.44 1517.29 1016.07C1519.2 998.546 1523.72 979.967 1523.72 979.967ZM1230.4 1040.97L1237.35 1018.55L1266.78 1020.11L1242.29 1081.67L1148.19 1027.14C1176.11 1018.68 1230.4 1040.97 1230.4 1040.97Z" fill="#0D0B6D"/>
<path fill-rule="evenodd" clip-rule="evenodd" d="M1500.95 959.16L1504.3 923.775L1541.79 952.16L1523.72 979.968L1500.95 959.16ZM1236.13 1022.34L1265.23 1024.96L1254.48 1051.02L1230.4 1040.97L1236.13 1022.34Z" fill="#E576C6"/>
<path d="M1291.27 665.566L1210.09 1028.61L1232.45 1034.31H1232.46L1258.49 1040.97L1258.62 1041L1267.63 1043.3C1267.63 1043.3 1308.99 912.795 1345.4 796.375C1354.26 810.804 1364.24 825.064 1375.47 838.936C1455.26 937.481 1504.08 979.604 1504.08 979.604L1511.34 968.66L1511.36 968.63L1528.81 942.331L1541.43 923.311C1541.43 923.311 1432.17 820.165 1383.01 675.065C1391.65 646.815 1397.64 626.649 1399.18 620.196C1407.99 583.401 1408.17 566.542 1408.17 565.197H1313.71L1275.83 565.197C1277.21 589.176 1281.02 624.836 1291.27 665.565L1291.27 665.566Z" fill="#19141E"/>
<path fill-rule="evenodd" clip-rule="evenodd" d="M1210.09 1028.61L1232.45 1034.31H1232.46L1258.49 1040.97L1258.62 1041L1267.63 1043.3C1267.63 1043.3 1308.99 912.795 1345.4 796.375C1359.61 750.926 1373.06 707.628 1383.01 675.065C1391.65 646.815 1397.64 626.649 1399.18 620.196C1407.99 583.401 1408.17 566.542 1408.17 565.197H1313.71L1291.27 665.565L1210.09 1028.61Z" fill="white" fill-opacity="0.1"/>
<path fill-rule="evenodd" clip-rule="evenodd" d="M1243.84 586.131C1243.84 586.131 1257.31 587.768 1259.87 593.596C1267.2 610.267 1252.01 640.071 1252.01 640.071C1252.01 640.071 1258.45 636.274 1259.73 639.594C1260.3 641.073 1261.59 652.879 1237.47 653.674C1234.91 653.759 1228.75 648.723 1228.75 648.723C1228.75 648.723 1233.24 657.015 1226.36 658.644C1226.36 658.644 1215.28 642.588 1215.11 639.015C1214.94 635.442 1218.49 617.357 1220.42 613.704C1222.34 610.052 1243.84 586.131 1243.84 586.131ZM1425.99 615.213C1428.33 608.54 1430.4 605.001 1430.4 605.001L1465.57 606.652C1469.14 616.493 1469.53 619.872 1470.4 627.492C1470.44 627.836 1470.48 628.188 1470.52 628.55C1471.32 635.491 1471.37 642.469 1468.66 651.757C1466.92 657.725 1465.05 662.799 1464.08 662.585C1461.64 662.047 1461.55 659.006 1461.55 659.006L1462.7 653.355L1463.22 647.837C1463.22 647.837 1454.54 672.265 1453.81 672.13C1451.21 671.655 1450.79 667.373 1450.79 667.373C1450.79 667.373 1448.08 675.804 1446.71 675.499C1443.23 674.722 1443.56 670.817 1443.56 670.817C1443.56 670.817 1442.46 671.75 1441.61 671.513C1438.46 670.631 1438.55 665.218 1438.61 662.045C1438.61 661.79 1438.62 661.55 1438.62 661.328C1438.62 661.328 1440.02 651.341 1439.73 648.263C1438.28 632.58 1435.77 628.85 1434.4 626.805C1434.27 626.611 1434.15 626.433 1434.04 626.261C1431.89 627.682 1431.09 630.117 1430.24 632.702C1429.63 634.582 1428.99 636.542 1427.78 638.248C1424.1 643.441 1413.84 648.348 1419.58 636.451C1422.76 629.844 1423.55 625.78 1424.29 622.007C1424.72 619.793 1425.13 617.68 1425.99 615.213Z" fill="#E576C6"/>
<path opacity="0.150646" d="M1247.08 607.668C1247.08 607.668 1243.7 620.029 1232.08 623.88C1228.02 625.227 1229.03 641.126 1219.08 639.224" stroke="black" stroke-width="3"/>
<path fill-rule="evenodd" clip-rule="evenodd" d="M1369.88 396.538L1365.4 377.818L1345.94 379.021L1332.56 395.484L1323.86 380.373L1317.65 380.761L1315.72 398.238C1287.4 409.04 1282.45 419.607 1276.25 432.863C1275.59 434.288 1274.91 435.745 1274.18 437.236C1266.01 454.02 1275.99 570.516 1275.99 570.516L1398.69 564.893C1398.69 564.893 1382.06 397.803 1371.17 396.667C1370.74 396.623 1370.31 396.579 1369.88 396.538Z" fill="#EFEFEF"/>
<path d="M1278.48 570.713L1272.72 478.582" stroke="#12173A" stroke-width="5"/>
<path fill-rule="evenodd" clip-rule="evenodd" d="M1425.49 640.749L1434.23 680.313L1368.56 685.667C1368.56 685.667 1362.92 496.309 1363.47 440.637C1363.72 415.144 1371.17 396.677 1371.17 396.677C1371.17 396.677 1400.36 405.216 1406.98 409.586C1422.57 419.879 1456.45 469.189 1462.48 495.255C1471.95 536.174 1470.97 606.906 1470.97 606.906L1421.23 604.57L1406.9 527.704L1404.71 547.381L1422.79 628.764C1422.16 630.793 1421.65 632.325 1421.23 633.36C1419.16 638.544 1417.97 641.563 1418.22 642.689C1418.45 643.737 1419.47 644.366 1421.98 643.089C1422.64 642.751 1423.81 641.971 1425.49 640.749ZM1272.32 604.581L1265.55 618.617L1222.03 594.539L1257.53 505.564C1257.53 505.564 1266.77 436.65 1272.33 427.448C1283.09 409.656 1315.51 398.327 1315.51 398.327C1315.51 398.327 1315.5 398.337 1315.5 398.347C1315.18 399.171 1314.92 403.945 1314.34 414.647C1313.94 421.881 1313.4 431.824 1312.6 445.087C1310.81 474.415 1293.89 684.907 1293.89 684.907L1270.48 682.152L1272.32 604.581Z" fill="#CE3D29"/>
<path fill-rule="evenodd" clip-rule="evenodd" d="M1393.84 454.589L1364.3 516.971C1364.3 516.971 1363.43 448.35 1363.83 431.84C1364.12 420.222 1371.17 396.677 1371.17 396.677L1382.9 406.334C1390.34 412.464 1392.25 423.033 1387.43 431.36L1387.28 431.629L1389.65 433.77C1395.5 439.04 1397.2 447.489 1393.84 454.589ZM1315.51 398.327L1307.26 516.38L1285.73 458.275C1282.6 449.834 1285.12 440.348 1292.03 434.54L1292.95 433.77L1292.54 431.661C1290.99 423.737 1293.97 415.611 1300.29 410.54L1315.51 398.327Z" fill="#2F2F3D"/>
<path opacity="0.197498" d="M1407.14 528.965L1404.25 514.61L1389.62 487.767" stroke="black" stroke-width="5"/>
</svg>
